<?xml version="1.0" encoding="UTF-8"?>
<svg xmlns="http://www.w3.org/2000/svg" version="1.1" viewBox="0 0 2000 2000">
  <defs>
    <style>
      .cls-1 {
        stroke-width: 19px;
      }

      .cls-1, .cls-2 {
        fill: none;
      }

      .cls-1, .cls-2, .cls-3 {
        stroke: #000;
        stroke-miterlimit: 10;
      }

      .cls-3 {
        fill: #009696;
        stroke-width: 25px;
      }
    </style>
  </defs>
  <g id="_Слой_4" data-name="Слой 4">
    <circle class="cls-3" cx="1000.71" cy="1000.7" r="969.2"/>
  </g>
  <g id="_Слой_1" data-name="Слой 1">
    <g>
      <g>
        <polyline class="cls-1" points="1700.97 730.15 1357.62 269.9 1336.3 416.44 1617.04 792.76 1599.19 915.44"/>
        <polyline class="cls-1" points="1601.8 919.41 1258.44 459.16 1237.13 605.7 1517.87 982.02 1500.02 1104.7"/>
        <polyline class="cls-1" points="1504.98 1111.82 1161.62 651.57 1140.3 798.12 1421.04 1174.44"/>
      </g>
      <g>
        <polyline class="cls-1" points="1270.95 1699.51 1731.2 1356.16 1584.65 1334.84 1208.33 1615.58 1085.65 1597.74"/>
        <polyline class="cls-1" points="1081.68 1600.34 1541.94 1256.99 1395.39 1235.67 1019.07 1516.41 896.39 1498.56"/>
        <polyline class="cls-1" points="889.27 1503.52 1349.52 1160.16 1202.98 1138.85 826.66 1419.59"/>
      </g>
      <g>
        <polyline class="cls-1" points="301.58 1269.49 644.93 1729.74 666.25 1583.2 385.51 1206.88 403.36 1084.2"/>
        <polyline class="cls-1" points="400.75 1080.23 744.11 1540.48 765.42 1393.94 484.68 1017.62 502.53 894.94"/>
        <polyline class="cls-1" points="497.58 887.82 840.93 1348.07 862.25 1201.52 581.51 825.2"/>
      </g>
      <g>
        <polyline class="cls-1" points="731.6 300.12 271.35 643.48 417.9 664.79 794.22 384.05 916.9 401.9"/>
        <polyline class="cls-1" points="920.87 399.3 460.61 742.65 607.16 763.97 983.48 483.23 1106.16 501.07"/>
        <polyline class="cls-1" points="1113.28 496.12 653.03 839.47 799.57 860.79 1175.89 580.05"/>
      </g>
    </g>
    <path class="cls-2" d="M304.13,244.52"/>
    <path class="cls-2" d="M51.59,462.76"/>
  </g>
</svg>